<mxfile host="Electron" agent="Mozilla/5.0 (Windows NT 10.0; Win64; x64) AppleWebKit/537.36 (KHTML, like Gecko) draw.io/24.7.17 Chrome/128.0.6613.36 Electron/32.0.1 Safari/537.36" version="24.7.17">
  <diagram id="C5RBs43oDa-KdzZeNtuy" name="Page-1">
    <mxGraphModel dx="2261" dy="2005" grid="1" gridSize="10" guides="1" tooltips="1" connect="1" arrows="1" fold="1" page="1" pageScale="1" pageWidth="827" pageHeight="1169" math="0" shadow="0">
      <root>
        <mxCell id="WIyWlLk6GJQsqaUBKTNV-0" />
        <mxCell id="WIyWlLk6GJQsqaUBKTNV-1" parent="WIyWlLk6GJQsqaUBKTNV-0" />
        <mxCell id="CyWUyiVhTnCL8hDN62mB-0" value="" style="rounded=0;whiteSpace=wrap;html=1;strokeColor=none;movable=0;resizable=0;rotatable=0;deletable=0;editable=0;locked=1;connectable=0;" parent="WIyWlLk6GJQsqaUBKTNV-1" vertex="1">
          <mxGeometry x="-81" y="-27.5" width="989" height="785" as="geometry" />
        </mxCell>
        <mxCell id="CyWUyiVhTnCL8hDN62mB-21" value="&lt;b style=&quot;font-size: 15px;&quot;&gt;Sprint Boot Backend&lt;br&gt;&lt;/b&gt;" style="rounded=1;whiteSpace=wrap;html=1;" parent="WIyWlLk6GJQsqaUBKTNV-1" vertex="1">
          <mxGeometry x="320.5" y="170" width="140" height="147.5" as="geometry" />
        </mxCell>
        <mxCell id="WIyWlLk6GJQsqaUBKTNV-4" value="Yes" style="rounded=0;html=1;jettySize=auto;orthogonalLoop=1;fontSize=11;endArrow=block;endFill=0;endSize=8;strokeWidth=1;shadow=0;labelBackgroundColor=none;edgeStyle=orthogonalEdgeStyle;" parent="WIyWlLk6GJQsqaUBKTNV-1" edge="1">
          <mxGeometry y="20" relative="1" as="geometry">
            <mxPoint as="offset" />
            <mxPoint x="220" y="249.9999999999999" as="sourcePoint" />
          </mxGeometry>
        </mxCell>
        <mxCell id="WIyWlLk6GJQsqaUBKTNV-5" value="No" style="edgeStyle=orthogonalEdgeStyle;rounded=0;html=1;jettySize=auto;orthogonalLoop=1;fontSize=11;endArrow=block;endFill=0;endSize=8;strokeWidth=1;shadow=0;labelBackgroundColor=none;" parent="WIyWlLk6GJQsqaUBKTNV-1" edge="1">
          <mxGeometry y="10" relative="1" as="geometry">
            <mxPoint as="offset" />
            <mxPoint x="270" y="209.9999999999999" as="sourcePoint" />
          </mxGeometry>
        </mxCell>
        <mxCell id="WIyWlLk6GJQsqaUBKTNV-8" value="No" style="rounded=0;html=1;jettySize=auto;orthogonalLoop=1;fontSize=11;endArrow=block;endFill=0;endSize=8;strokeWidth=1;shadow=0;labelBackgroundColor=none;edgeStyle=orthogonalEdgeStyle;" parent="WIyWlLk6GJQsqaUBKTNV-1" edge="1">
          <mxGeometry x="0.3333" y="20" relative="1" as="geometry">
            <mxPoint as="offset" />
            <mxPoint x="220" y="369.9999999999999" as="sourcePoint" />
          </mxGeometry>
        </mxCell>
        <mxCell id="CyWUyiVhTnCL8hDN62mB-15" value="" style="rounded=1;whiteSpace=wrap;html=1;" parent="WIyWlLk6GJQsqaUBKTNV-1" vertex="1">
          <mxGeometry x="190" y="396" width="421" height="197.5" as="geometry" />
        </mxCell>
        <mxCell id="CyWUyiVhTnCL8hDN62mB-16" value="&lt;span style=&quot;font-size: 15px;&quot;&gt;&lt;b&gt;Middleware&lt;/b&gt;&lt;/span&gt;" style="text;html=1;align=center;verticalAlign=middle;whiteSpace=wrap;rounded=0;" parent="WIyWlLk6GJQsqaUBKTNV-1" vertex="1">
          <mxGeometry x="349.5" y="360" width="90" height="25" as="geometry" />
        </mxCell>
        <mxCell id="CyWUyiVhTnCL8hDN62mB-17" value="Kafka" style="rounded=1;whiteSpace=wrap;html=1;fontSize=12;glass=0;strokeWidth=1;shadow=0;" parent="WIyWlLk6GJQsqaUBKTNV-1" vertex="1">
          <mxGeometry x="260.5" y="440" width="120" height="40" as="geometry" />
        </mxCell>
        <mxCell id="CyWUyiVhTnCL8hDN62mB-18" value="Zookeeper" style="rounded=1;whiteSpace=wrap;html=1;fontSize=12;glass=0;strokeWidth=1;shadow=0;" parent="WIyWlLk6GJQsqaUBKTNV-1" vertex="1">
          <mxGeometry x="420.5" y="440" width="120" height="40" as="geometry" />
        </mxCell>
        <mxCell id="CyWUyiVhTnCL8hDN62mB-19" value="Redis" style="rounded=1;whiteSpace=wrap;html=1;fontSize=12;glass=0;strokeWidth=1;shadow=0;" parent="WIyWlLk6GJQsqaUBKTNV-1" vertex="1">
          <mxGeometry x="260.5" y="510" width="120" height="40" as="geometry" />
        </mxCell>
        <mxCell id="CyWUyiVhTnCL8hDN62mB-22" value="&lt;span style=&quot;font-size: 15px;&quot;&gt;&lt;b&gt;Tomcat&lt;/b&gt;&lt;/span&gt;" style="text;html=1;align=center;verticalAlign=middle;whiteSpace=wrap;rounded=0;" parent="WIyWlLk6GJQsqaUBKTNV-1" vertex="1">
          <mxGeometry x="310" y="130" width="161" height="20" as="geometry" />
        </mxCell>
        <mxCell id="4OuNMJFN60mTD5xVLwCH-0" value="Keycloak" style="rounded=1;whiteSpace=wrap;html=1;fontSize=12;glass=0;strokeWidth=1;shadow=0;" vertex="1" parent="WIyWlLk6GJQsqaUBKTNV-1">
          <mxGeometry x="420.5" y="510" width="120" height="40" as="geometry" />
        </mxCell>
        <mxCell id="4OuNMJFN60mTD5xVLwCH-3" value="&lt;b&gt;&lt;font style=&quot;font-size: 15px;&quot;&gt;MySQL&lt;/font&gt;&lt;/b&gt;" style="rounded=1;whiteSpace=wrap;html=1;" vertex="1" parent="WIyWlLk6GJQsqaUBKTNV-1">
          <mxGeometry x="510.5" y="170" width="140" height="147.5" as="geometry" />
        </mxCell>
        <mxCell id="4OuNMJFN60mTD5xVLwCH-4" value="&lt;span style=&quot;font-size: 15px;&quot;&gt;&lt;b&gt;Database&lt;/b&gt;&lt;/span&gt;" style="text;html=1;align=center;verticalAlign=middle;whiteSpace=wrap;rounded=0;" vertex="1" parent="WIyWlLk6GJQsqaUBKTNV-1">
          <mxGeometry x="500" y="130" width="161" height="20" as="geometry" />
        </mxCell>
        <mxCell id="4OuNMJFN60mTD5xVLwCH-5" value="&lt;b style=&quot;font-size: 15px;&quot;&gt;Vue Frontend Deployment&lt;/b&gt;" style="rounded=1;whiteSpace=wrap;html=1;" vertex="1" parent="WIyWlLk6GJQsqaUBKTNV-1">
          <mxGeometry x="120.5" y="170" width="140" height="147.5" as="geometry" />
        </mxCell>
        <mxCell id="4OuNMJFN60mTD5xVLwCH-6" value="&lt;span style=&quot;font-size: 15px;&quot;&gt;&lt;b&gt;NGINX&lt;/b&gt;&lt;/span&gt;" style="text;html=1;align=center;verticalAlign=middle;whiteSpace=wrap;rounded=0;" vertex="1" parent="WIyWlLk6GJQsqaUBKTNV-1">
          <mxGeometry x="110" y="130" width="161" height="20" as="geometry" />
        </mxCell>
      </root>
    </mxGraphModel>
  </diagram>
</mxfile>
